<svg version="1.0" xmlns="http://www.w3.org/2000/svg" width="800.000000" height="800.000000" viewBox="0 0 800.000000 800.000000" preserveAspectRatio="xMidYMid meet">
  <metadata>
    <rdf:RDF xmlns:rdf="http://www.w3.org/1999/02/22-rdf-syntax-ns#" xmlns:rdfs="http://www.w3.org/2000/01/rdf-schema#" xmlns:dc="http://purl.org/dc/elements/1.1/">
      <rdf:Description dc:format="image/svg+xml" dc:Label="1" dc:ContentProducer="001191330110MACRLGPT8B00000" dc:ProduceID="320858787" dc:ReservedCode1="ZhqRycZzoU+kdbqDerTcvCRKtSceEJFR5WCVqwemwBM=" dc:ContentPropagator="001191330110MACRLGPT8B00000" dc:PropagateID="320858787" dc:ReservedCode2="ZhqRycZzoU+kdbqDerTcvCRKtSceEJFR5WCVqwemwBM="/>
    </rdf:RDF>
  </metadata>
  <g transform="translate(0.000000,800.000000) scale(0.100000,-0.100000)" fill="#000000" stroke="none">
    <path d="M4542 6389 c-191 -25 -384 -134 -525 -298 -146 -170 -237 -448 -208 -632 6 -35 11 -67 11 -71 0 -4 14 -23 31 -42 46 -53 140 -67 279 -40 15 2 7 -4 -20 -17 -32 -16 -64 -22 -111 -22 -60 0 -79 6 -205 63 -346 156 -428 180 -652 187 -258 9 -442 -35 -662 -158 -401 -225 -646 -681 -677 -1262 -3 -65 -10 -120 -15 -123 -4 -3 -4 -13 1 -22 4 -9 11 -78 15 -152 22 -456 167 -937 404 -1338 253 -426 582 -756 835 -838 108 -35 236 -42 332 -20 38 9 128 43 200 76 175 79 284 110 415 117 175 9 303 -19 515 -113 207 -92 341 -113 484 -78 306 76 716 503 967 1005 123 247 115 309 -61 441 -223 168 -356 360 -417 605 -29 117 -31 346 -4 471 61 284 167 447 381 585 113 72 140 116 133 212 -8 90 -45 155 -152 260 -160 159 -365 264 -618 315 -187 38 -448 25 -627 -31 -35 -11 -66 -17 -69 -14 -3 3 15 24 40 48 103 95 193 240 238 382 28 87 39 289 21 362 -30 118 -119 163 -279 142z"/>
  </g>
</svg>